<svg width="962" height="199" viewBox="0 0 962 199" fill="none" xmlns="http://www.w3.org/2000/svg">
<path d="M195.794 11.3727C195.794 5.09173 190.702 0 184.421 0H30.9148C13.841 0 1.22844e-06 13.841 1.22844e-06 30.9148V87.9018C1.22844e-06 112.435 27.2047 127.193 47.7704 113.817L190.622 20.9063C193.848 18.8082 195.794 15.2209 195.794 11.3727Z" fill="white"/>
<path d="M0 184.421C0 190.702 5.09173 195.794 11.3727 195.794H164.879C181.953 195.794 195.794 181.953 195.794 164.879V107.892C195.794 83.359 168.589 68.6004 148.023 81.9764L5.17201 174.887C1.94607 176.986 0 180.573 0 184.421Z" fill="white"/>
<path d="M320.022 63.8817V154.926H292.121V142.526C289.293 146.55 285.432 149.813 280.537 152.315C275.751 154.708 270.421 155.905 264.547 155.905C257.586 155.905 251.44 154.382 246.11 151.336C240.78 148.182 236.646 143.668 233.71 137.794C230.773 131.92 229.304 125.013 229.304 117.072V63.8817H257.042V113.32C257.042 119.411 258.619 124.143 261.773 127.515C264.928 130.887 269.17 132.573 274.5 132.573C279.939 132.573 284.235 130.887 287.39 127.515C290.544 124.143 292.121 119.411 292.121 113.32V63.8817H320.022ZM367.963 76.7714C370.574 72.5292 374.327 69.1028 379.222 66.4923C384.116 63.8817 389.718 62.5764 396.027 62.5764C403.533 62.5764 410.331 64.4799 416.422 68.287C422.514 72.0941 427.3 77.5329 430.781 84.6032C434.37 91.6735 436.165 99.886 436.165 109.241C436.165 118.595 434.37 126.862 430.781 134.041C427.3 141.111 422.514 146.605 416.422 150.52C410.331 154.328 403.533 156.231 396.027 156.231C389.609 156.231 384.008 154.98 379.222 152.478C374.435 149.868 370.683 146.441 367.963 142.199V154.926H340.063V34.1863H367.963V76.7714ZM407.775 109.241C407.775 102.279 405.817 96.8403 401.901 92.9244C398.094 88.8998 393.362 86.8874 387.706 86.8874C382.158 86.8874 377.427 88.8998 373.511 92.9244C369.704 96.9491 367.8 102.442 367.8 109.404C367.8 116.365 369.704 121.858 373.511 125.883C377.427 129.908 382.158 131.92 387.706 131.92C393.253 131.92 397.985 129.908 401.901 125.883C405.817 121.75 407.775 116.202 407.775 109.241ZM492.245 156.068C483.87 156.068 476.364 154.708 469.729 151.989C463.094 149.27 457.764 145.245 453.739 139.915C449.823 134.585 447.757 128.167 447.539 120.662H477.234C477.67 124.904 479.138 128.167 481.64 130.452C484.142 132.627 487.405 133.715 491.429 133.715C495.563 133.715 498.826 132.79 501.219 130.941C503.612 128.983 504.809 126.318 504.809 122.946C504.809 120.118 503.83 117.779 501.872 115.93C500.023 114.081 497.684 112.558 494.856 111.362C492.137 110.165 488.221 108.805 483.108 107.283C475.712 104.998 469.675 102.714 464.997 100.43C460.32 98.1456 456.295 94.7736 452.923 90.3138C449.551 85.8541 447.865 80.0347 447.865 72.8556C447.865 62.1957 451.727 53.8744 459.45 47.8919C467.173 41.8005 477.234 38.7548 489.635 38.7548C502.253 38.7548 512.423 41.8005 520.146 47.8919C527.869 53.8744 532.002 62.2501 532.546 73.0187H502.361C502.144 69.3204 500.784 66.4379 498.282 64.3712C495.78 62.1957 492.572 61.1079 488.656 61.1079C485.284 61.1079 482.564 62.0325 480.498 63.8817C478.431 65.6221 477.398 68.1783 477.398 71.5503C477.398 75.2486 479.138 78.1311 482.619 80.1978C486.1 82.2645 491.538 84.4944 498.935 86.8874C506.332 89.3893 512.314 91.7823 516.883 94.0665C521.56 96.3508 525.585 99.6684 528.957 104.019C532.329 108.37 534.015 113.972 534.015 120.825C534.015 127.351 532.329 133.28 528.957 138.61C525.693 143.94 520.907 148.182 514.598 151.336C508.289 154.491 500.838 156.068 492.245 156.068ZM579.085 76.7714C581.805 72.5292 585.558 69.1028 590.344 66.4923C595.13 63.8817 600.732 62.5764 607.149 62.5764C614.655 62.5764 621.453 64.4799 627.544 68.287C633.636 72.0941 638.422 77.5329 641.903 84.6032C645.492 91.6735 647.287 99.886 647.287 109.241C647.287 118.595 645.492 126.862 641.903 134.041C638.422 141.111 633.636 146.605 627.544 150.52C621.453 154.328 614.655 156.231 607.149 156.231C600.84 156.231 595.238 154.926 590.344 152.315C585.558 149.705 581.805 146.333 579.085 142.199V198.327H551.185V63.8817H579.085V76.7714ZM618.897 109.241C618.897 102.279 616.939 96.8403 613.023 92.9244C609.216 88.8998 604.484 86.8874 598.828 86.8874C593.28 86.8874 588.549 88.8998 584.633 92.9244C580.826 96.9491 578.922 102.442 578.922 109.404C578.922 116.365 580.826 121.858 584.633 125.883C588.549 129.908 593.28 131.92 598.828 131.92C604.375 131.92 609.107 129.908 613.023 125.883C616.939 121.75 618.897 116.202 618.897 109.241ZM656.377 109.241C656.377 99.886 658.117 91.6735 661.598 84.6032C665.187 77.5329 670.028 72.0941 676.119 68.287C682.211 64.4799 689.009 62.5764 696.515 62.5764C702.932 62.5764 708.534 63.8817 713.32 66.4923C718.215 69.1028 721.968 72.5292 724.578 76.7714V63.8817H752.479V154.926H724.578V142.036C721.859 146.278 718.052 149.705 713.157 152.315C708.371 154.926 702.769 156.231 696.351 156.231C688.955 156.231 682.211 154.328 676.119 150.52C670.028 146.605 665.187 141.111 661.598 134.041C658.117 126.862 656.377 118.595 656.377 109.241ZM724.578 109.404C724.578 102.442 722.62 96.9491 718.704 92.9244C714.897 88.8998 710.22 86.8874 704.673 86.8874C699.125 86.8874 694.393 88.8998 690.478 92.9244C686.67 96.8403 684.767 102.279 684.767 109.241C684.767 116.202 686.67 121.75 690.478 125.883C694.393 129.908 699.125 131.92 704.673 131.92C710.22 131.92 714.897 129.908 718.704 125.883C722.62 121.858 724.578 116.365 724.578 109.404ZM767.116 109.404C767.116 99.9404 769.02 91.6735 772.827 84.6032C776.743 77.5329 782.127 72.0941 788.98 68.287C795.941 64.4799 803.882 62.5764 812.801 62.5764C824.223 62.5764 833.741 65.5677 841.355 71.5503C849.078 77.5329 854.136 85.9629 856.529 96.8403H826.833C824.332 89.8787 819.491 86.398 812.312 86.398C807.2 86.398 803.121 88.4103 800.075 92.4349C797.029 96.3508 795.506 102.007 795.506 109.404C795.506 116.8 797.029 122.511 800.075 126.536C803.121 130.452 807.2 132.409 812.312 132.409C819.491 132.409 824.332 128.929 826.833 121.967H856.529C854.136 132.627 849.078 141.003 841.355 147.094C833.632 153.185 824.114 156.231 812.801 156.231C803.882 156.231 795.941 154.328 788.98 150.52C782.127 146.713 776.743 141.275 772.827 134.204C769.02 127.134 767.116 118.867 767.116 109.404ZM957.276 107.935C957.276 110.546 957.113 113.265 956.786 116.093H893.643C894.078 121.75 895.873 126.101 899.027 129.146C902.29 132.083 906.261 133.552 910.938 133.552C917.9 133.552 922.74 130.615 925.459 124.741H955.155C953.632 130.723 950.858 136.108 946.834 140.894C942.918 145.68 937.968 149.433 931.986 152.152C926.003 154.871 919.314 156.231 911.917 156.231C902.997 156.231 895.057 154.328 888.095 150.52C881.134 146.713 875.695 141.275 871.779 134.204C867.863 127.134 865.905 118.867 865.905 109.404C865.905 99.9404 867.809 91.6735 871.616 84.6032C875.532 77.5329 880.971 72.0941 887.932 68.287C894.894 64.4799 902.889 62.5764 911.917 62.5764C920.728 62.5764 928.559 64.4255 935.412 68.1239C942.265 71.8222 947.595 77.0978 951.402 83.9505C955.318 90.8033 957.276 98.7982 957.276 107.935ZM928.723 100.593C928.723 95.8069 927.091 91.9998 923.828 89.1717C920.565 86.3436 916.485 84.9295 911.591 84.9295C906.913 84.9295 902.943 86.2892 899.68 89.0085C896.525 91.7279 894.567 95.5894 893.806 100.593H928.723Z" fill="white"/>
</svg>
